<svg xmlns="http://www.w3.org/2000/svg" xmlns:xlink="http://www.w3.org/1999/xlink" width="100" zoomAndPan="magnify" viewBox="0 0 75 74.999997" height="100" preserveAspectRatio="xMidYMid meet" version="1.0"><defs><clipPath id="e26f74e7f9"><path d="M 15 19 L 68.925781 19 L 68.925781 55 L 15 55 Z M 15 19 " clip-rule="nonzero"/></clipPath><clipPath id="de636f54c3"><path d="M 7 17 L 68.925781 17 L 68.925781 58 L 7 58 Z M 7 17 " clip-rule="nonzero"/></clipPath><clipPath id="8b513a3ab5"><path d="M 21.726562 21.542969 L 68.925781 21.542969 L 68.925781 59 L 21.726562 59 Z M 21.726562 21.542969 " clip-rule="nonzero"/></clipPath></defs><g clip-path="url(#e26f74e7f9)"><path fill="#a74e1e" d="M 66.957031 46.417969 C 65.988281 49.234375 62.554688 56.472656 60.136719 52.152344 C 59.96875 51.851562 58.902344 55.359375 58.746094 54.945312 C 58.746094 54.945312 58.152344 53.28125 56.964844 53.6875 C 56.109375 53.980469 55.417969 53.339844 55.554688 50.285156 C 55.554688 50.285156 54.621094 53.128906 53.511719 53.566406 C 53.308594 53.644531 52.601562 54.703125 52.296875 54.378906 C 51.480469 53.523438 50.925781 50.503906 50.925781 50.503906 C 50.199219 51.933594 48.535156 54.304688 47.429688 48.664062 C 47.429688 48.664062 46.507812 56.660156 41.398438 49.894531 C 41.398438 49.894531 42.183594 54.890625 38.355469 52.917969 C 38.355469 52.917969 37.515625 54.898438 35.199219 53.140625 C 34.578125 52.667969 33.6875 51.8125 32.425781 50.402344 C 32.425781 50.402344 31.835938 54.75 30.328125 53.4375 C 29.871094 53.039062 27.902344 52.730469 27.125 53.367188 C 26.542969 53.847656 25.964844 53.359375 25.75 50.183594 C 25.75 50.183594 23.546875 54.855469 24.816406 48.515625 C 25.214844 46.53125 25.535156 44.386719 21.226562 41.273438 C 21.226562 41.273438 18.929688 36.691406 18.664062 37.03125 C 18.605469 37.101562 18.539062 37.160156 18.460938 37.207031 C 17.828125 37.570312 17.136719 36.878906 16.839844 35.566406 C 16.816406 35.449219 15.832031 35.558594 15.8125 35.433594 C 15.738281 34.960938 16.636719 33.867188 16.769531 32.851562 C 16.792969 32.691406 16.816406 32.53125 16.847656 32.363281 C 16.941406 31.863281 16.277344 31.332031 16.492188 30.800781 C 16.714844 30.25 17.824219 29.699219 18.222656 29.171875 C 19.128906 27.960938 20.550781 26.886719 22.746094 26.285156 C 23.964844 25.953125 25.039062 25.832031 25.980469 25.867188 C 30.246094 21.605469 38.128906 16.289062 47.144531 22.460938 C 50.300781 24.621094 55.285156 28.390625 60.496094 29.898438 C 63.300781 30.710938 66.949219 32.683594 67.949219 37.253906 C 68.257812 38.664062 68.730469 41.851562 68.429688 43.800781 C 68.289062 44.71875 67.644531 44.179688 67.335938 45.234375 C 67.21875 45.621094 67.09375 46.011719 66.957031 46.417969 " fill-opacity="1" fill-rule="nonzero"/></g><path fill="#fabd73" d="M 28.035156 27.34375 C 27.96875 27.261719 27.894531 27.183594 27.808594 27.113281 C 27.722656 27.046875 27.632812 26.980469 27.519531 26.933594 C 27.503906 26.925781 27.484375 26.925781 27.464844 26.929688 C 27.40625 26.9375 27.371094 26.992188 27.382812 27.046875 C 27.402344 27.167969 27.445312 27.273438 27.496094 27.371094 C 27.546875 27.46875 27.605469 27.558594 27.671875 27.644531 C 27.738281 27.726562 27.808594 27.808594 27.890625 27.878906 C 27.972656 27.949219 28.0625 28.015625 28.171875 28.0625 C 28.195312 28.074219 28.21875 28.078125 28.246094 28.070312 C 28.308594 28.058594 28.351562 27.996094 28.339844 27.929688 C 28.316406 27.808594 28.269531 27.707031 28.21875 27.609375 C 28.167969 27.515625 28.105469 27.425781 28.035156 27.34375 Z M 29.707031 30.277344 C 29.683594 30.199219 29.648438 30.125 29.601562 30.054688 C 29.554688 29.984375 29.5 29.914062 29.421875 29.855469 C 29.410156 29.847656 29.394531 29.839844 29.378906 29.835938 C 29.308594 29.816406 29.238281 29.859375 29.222656 29.929688 C 29.195312 30.027344 29.195312 30.113281 29.207031 30.199219 C 29.214844 30.28125 29.238281 30.363281 29.265625 30.4375 C 29.296875 30.515625 29.332031 30.589844 29.382812 30.660156 C 29.429688 30.730469 29.488281 30.796875 29.570312 30.855469 C 29.578125 30.859375 29.589844 30.867188 29.601562 30.871094 C 29.660156 30.886719 29.722656 30.851562 29.738281 30.792969 C 29.765625 30.695312 29.765625 30.605469 29.761719 30.523438 C 29.753906 30.4375 29.734375 30.355469 29.707031 30.277344 Z M 26.609375 29.097656 C 26.5625 28.984375 26.507812 28.875 26.441406 28.769531 C 26.375 28.667969 26.300781 28.566406 26.203125 28.476562 C 26.183594 28.460938 26.164062 28.449219 26.140625 28.449219 C 26.085938 28.445312 26.039062 28.488281 26.035156 28.542969 C 26.027344 28.679688 26.042969 28.804688 26.070312 28.925781 C 26.09375 29.046875 26.128906 29.164062 26.175781 29.277344 C 26.21875 29.390625 26.273438 29.5 26.335938 29.605469 C 26.398438 29.710938 26.472656 29.8125 26.566406 29.90625 C 26.585938 29.921875 26.613281 29.933594 26.640625 29.9375 C 26.707031 29.9375 26.761719 29.886719 26.765625 29.824219 C 26.773438 29.6875 26.753906 29.566406 26.722656 29.445312 C 26.695312 29.324219 26.65625 29.207031 26.609375 29.097656 Z M 24.261719 31.140625 C 24.238281 31.039062 24.203125 30.9375 24.160156 30.839844 C 24.113281 30.742188 24.058594 30.644531 23.980469 30.554688 C 23.964844 30.542969 23.949219 30.53125 23.929688 30.523438 C 23.875 30.507812 23.820312 30.542969 23.804688 30.597656 C 23.773438 30.710938 23.765625 30.824219 23.765625 30.929688 C 23.769531 31.039062 23.785156 31.144531 23.804688 31.25 C 23.828125 31.351562 23.859375 31.453125 23.902344 31.550781 C 23.945312 31.652344 23.996094 31.75 24.074219 31.839844 C 24.089844 31.855469 24.109375 31.871094 24.132812 31.875 C 24.199219 31.894531 24.265625 31.855469 24.28125 31.789062 C 24.3125 31.671875 24.316406 31.5625 24.3125 31.457031 C 24.304688 31.347656 24.289062 31.242188 24.261719 31.140625 Z M 23.40625 28.070312 C 23.367188 27.984375 23.324219 27.902344 23.269531 27.824219 C 23.214844 27.75 23.152344 27.675781 23.0625 27.609375 C 23.050781 27.601562 23.035156 27.59375 23.019531 27.589844 C 22.960938 27.582031 22.90625 27.621094 22.894531 27.679688 C 22.878906 27.785156 22.882812 27.882812 22.898438 27.976562 C 22.910156 28.074219 22.9375 28.160156 22.96875 28.25 C 23 28.335938 23.042969 28.417969 23.09375 28.496094 C 23.148438 28.574219 23.207031 28.652344 23.296875 28.714844 C 23.3125 28.726562 23.328125 28.734375 23.347656 28.738281 C 23.417969 28.75 23.480469 28.703125 23.492188 28.632812 C 23.511719 28.527344 23.5 28.429688 23.484375 28.335938 C 23.46875 28.246094 23.441406 28.15625 23.40625 28.070312 Z M 21.269531 29.796875 C 21.261719 29.78125 21.25 29.765625 21.238281 29.757812 C 21.179688 29.710938 21.101562 29.722656 21.058594 29.777344 C 20.996094 29.859375 20.960938 29.941406 20.933594 30.027344 C 20.910156 30.109375 20.894531 30.195312 20.890625 30.277344 C 20.886719 30.363281 20.890625 30.449219 20.90625 30.539062 C 20.921875 30.625 20.945312 30.710938 20.996094 30.800781 C 21.003906 30.8125 21.011719 30.824219 21.023438 30.832031 C 21.070312 30.871094 21.136719 30.863281 21.175781 30.816406 C 21.238281 30.734375 21.277344 30.652344 21.304688 30.566406 C 21.335938 30.484375 21.351562 30.402344 21.359375 30.316406 C 21.367188 30.230469 21.367188 30.144531 21.355469 30.058594 C 21.339844 29.972656 21.320312 29.882812 21.269531 29.796875 Z M 19.738281 29.210938 C 19.609375 29.296875 19.507812 29.410156 19.421875 29.53125 C 19.339844 29.65625 19.273438 29.792969 19.230469 29.933594 C 19.183594 30.074219 19.15625 30.222656 19.148438 30.375 C 19.144531 30.523438 19.15625 30.675781 19.207031 30.820312 C 19.21875 30.84375 19.234375 30.863281 19.257812 30.875 C 19.304688 30.898438 19.363281 30.878906 19.386719 30.828125 L 19.390625 30.828125 C 19.453125 30.695312 19.496094 30.570312 19.542969 30.449219 L 19.675781 30.085938 L 19.800781 29.722656 C 19.839844 29.601562 19.878906 29.476562 19.910156 29.335938 L 19.910156 29.332031 C 19.917969 29.300781 19.914062 29.269531 19.894531 29.242188 C 19.859375 29.191406 19.789062 29.175781 19.738281 29.210938 Z M 19.019531 32.699219 C 19.011719 32.6875 19 32.675781 18.988281 32.667969 C 18.929688 32.621094 18.847656 32.636719 18.804688 32.695312 C 18.746094 32.773438 18.71875 32.851562 18.699219 32.929688 C 18.675781 33.011719 18.667969 33.089844 18.667969 33.167969 C 18.667969 33.246094 18.679688 33.328125 18.699219 33.40625 C 18.71875 33.488281 18.75 33.566406 18.804688 33.648438 C 18.8125 33.65625 18.820312 33.664062 18.828125 33.671875 C 18.878906 33.710938 18.949219 33.699219 18.988281 33.652344 C 19.046875 33.570312 19.078125 33.492188 19.101562 33.414062 C 19.125 33.335938 19.136719 33.253906 19.140625 33.175781 C 19.144531 33.097656 19.136719 33.015625 19.117188 32.9375 C 19.101562 32.859375 19.074219 32.777344 19.019531 32.699219 Z M 17.796875 29.140625 C 17.058594 29.210938 14.710938 29.441406 12.210938 26.214844 C 11.113281 24.796875 9.40625 23.363281 7.09375 23.878906 C 5.925781 24.136719 8.828125 24.738281 9.789062 27.125 C 11.867188 32.269531 13.472656 33.132812 16.847656 32.363281 C 17.042969 31.328125 17.453125 30.179688 18.25 29.132812 C 18.109375 29.121094 17.960938 29.121094 17.796875 29.140625 Z M 35.101562 21.175781 C 35.480469 26.53125 34.496094 28.101562 31.386719 28.9375 C 30.855469 28.074219 30.023438 27.160156 28.800781 26.550781 C 29.496094 26.289062 31.699219 25.445312 32.53125 21.4375 C 32.894531 19.675781 33.796875 17.628906 36.097656 17.058594 C 37.257812 16.769531 34.917969 18.605469 35.101562 21.175781 " fill-opacity="1" fill-rule="nonzero"/><g clip-path="url(#de636f54c3)"><path fill="#d36e24" d="M 12.550781 30.695312 C 12.476562 31.03125 12.4375 31.375 12.449219 31.71875 C 12.449219 31.753906 12.476562 31.789062 12.511719 31.796875 C 12.554688 31.804688 12.597656 31.777344 12.609375 31.734375 C 12.679688 31.40625 12.757812 31.089844 12.855469 30.777344 C 12.949219 30.464844 13.0625 30.160156 13.195312 29.863281 C 13.328125 29.566406 13.480469 29.28125 13.644531 29 C 13.8125 28.71875 13.996094 28.445312 14.183594 28.167969 C 14.199219 28.144531 14.199219 28.109375 14.179688 28.085938 C 14.152344 28.054688 14.109375 28.050781 14.082031 28.078125 C 13.828125 28.300781 13.597656 28.554688 13.394531 28.832031 C 13.191406 29.105469 13.019531 29.40625 12.875 29.71875 C 12.734375 30.03125 12.621094 30.359375 12.550781 30.695312 Z M 11.566406 28.21875 C 11.402344 28.476562 11.265625 28.757812 11.179688 29.054688 C 11.089844 29.347656 11.042969 29.65625 11.058594 29.960938 C 11.0625 29.996094 11.085938 30.027344 11.121094 30.035156 C 11.164062 30.046875 11.210938 30.019531 11.21875 29.976562 C 11.285156 29.691406 11.367188 29.417969 11.476562 29.160156 C 11.582031 28.898438 11.710938 28.648438 11.863281 28.410156 C 12.011719 28.171875 12.183594 27.949219 12.371094 27.734375 C 12.554688 27.515625 12.757812 27.3125 12.96875 27.109375 C 12.988281 27.085938 12.996094 27.054688 12.980469 27.027344 C 12.964844 26.992188 12.921875 26.980469 12.886719 26.996094 C 12.621094 27.136719 12.378906 27.316406 12.15625 27.519531 C 11.929688 27.726562 11.734375 27.960938 11.566406 28.21875 Z M 9.933594 24.308594 L 9.9375 24.304688 C 9.949219 24.289062 9.957031 24.265625 9.949219 24.238281 C 9.941406 24.203125 9.902344 24.179688 9.863281 24.191406 C 9.714844 24.234375 9.570312 24.300781 9.4375 24.386719 C 9.304688 24.46875 9.183594 24.574219 9.074219 24.691406 C 8.964844 24.808594 8.871094 24.941406 8.800781 25.082031 C 8.726562 25.222656 8.671875 25.367188 8.640625 25.523438 C 8.632812 25.550781 8.640625 25.582031 8.664062 25.601562 C 8.699219 25.632812 8.75 25.632812 8.78125 25.597656 C 8.886719 25.484375 8.976562 25.367188 9.0625 25.253906 C 9.152344 25.144531 9.238281 25.035156 9.332031 24.929688 C 9.425781 24.828125 9.523438 24.726562 9.625 24.625 C 9.726562 24.523438 9.832031 24.421875 9.933594 24.308594 Z M 8.914062 23.917969 L 8.914062 23.914062 C 8.929688 23.898438 8.933594 23.878906 8.929688 23.855469 C 8.921875 23.816406 8.882812 23.792969 8.84375 23.800781 C 8.71875 23.824219 8.597656 23.878906 8.492188 23.949219 C 8.382812 24.015625 8.28125 24.097656 8.195312 24.195312 C 8.109375 24.292969 8.035156 24.402344 7.976562 24.523438 C 7.921875 24.640625 7.886719 24.773438 7.886719 24.90625 C 7.886719 24.933594 7.898438 24.957031 7.917969 24.972656 C 7.957031 25 8.007812 24.996094 8.039062 24.957031 L 8.25 24.6875 C 8.316406 24.601562 8.386719 24.515625 8.457031 24.433594 L 8.679688 24.183594 C 8.757812 24.097656 8.835938 24.015625 8.914062 23.917969 Z M 10.652344 25.390625 C 10.789062 25.273438 10.933594 25.160156 11.074219 25.035156 C 11.09375 25.019531 11.105469 24.992188 11.097656 24.964844 C 11.085938 24.925781 11.050781 24.90625 11.011719 24.914062 C 10.824219 24.964844 10.648438 25.042969 10.480469 25.140625 C 10.308594 25.238281 10.152344 25.359375 10.007812 25.492188 C 9.867188 25.628906 9.734375 25.78125 9.632812 25.953125 C 9.53125 26.125 9.453125 26.316406 9.425781 26.515625 C 9.417969 26.546875 9.433594 26.578125 9.460938 26.59375 C 9.496094 26.621094 9.546875 26.609375 9.574219 26.574219 L 9.574219 26.570312 C 9.675781 26.417969 9.777344 26.273438 9.890625 26.136719 C 10.003906 26.003906 10.125 25.871094 10.25 25.75 C 10.378906 25.625 10.511719 25.507812 10.652344 25.390625 Z M 30.191406 32.6875 C 30.292969 33.449219 30.277344 34.582031 29.34375 34.871094 C 28.339844 35.179688 27.660156 33.625 27.34375 32.652344 C 27.511719 33.460938 27.570312 34.734375 26.535156 35.367188 C 25.542969 35.972656 25.042969 35.128906 24.808594 34.410156 C 24.867188 35.042969 24.730469 35.851562 23.738281 36.117188 C 22.398438 36.480469 21.648438 34.800781 21.355469 33.394531 C 21.503906 34.789062 21.582031 37.074219 20.460938 36.992188 C 19.34375 36.914062 18.988281 36.199219 18.871094 35.773438 C 18.914062 36.125 18.929688 36.691406 18.660156 37.03125 C 19.753906 42.113281 23.476562 45.75 27.328125 44.660156 C 32.066406 43.320312 32.460938 38.355469 31.5 34.039062 C 30.742188 34.050781 30.367188 33.289062 30.191406 32.6875 Z M 10.972656 26.90625 C 11.121094 26.742188 11.285156 26.589844 11.464844 26.453125 C 11.640625 26.3125 11.828125 26.1875 12.027344 26.0625 C 12.050781 26.046875 12.066406 26.019531 12.058594 25.988281 C 12.050781 25.953125 12.015625 25.925781 11.980469 25.933594 C 11.738281 25.980469 11.507812 26.074219 11.296875 26.199219 C 11.082031 26.324219 10.886719 26.484375 10.714844 26.664062 C 10.542969 26.847656 10.398438 27.054688 10.292969 27.28125 C 10.183594 27.507812 10.109375 27.75 10.085938 27.996094 C 10.082031 28.027344 10.101562 28.0625 10.132812 28.078125 C 10.171875 28.097656 10.222656 28.078125 10.242188 28.039062 L 10.242188 28.035156 C 10.339844 27.824219 10.445312 27.625 10.566406 27.4375 C 10.6875 27.246094 10.820312 27.070312 10.972656 26.90625 Z M 32.628906 21.230469 C 32.863281 21.253906 33.085938 21.28125 33.304688 21.328125 C 33.523438 21.378906 33.738281 21.4375 33.945312 21.523438 C 34.152344 21.601562 34.351562 21.707031 34.542969 21.820312 C 34.738281 21.9375 34.921875 22.074219 35.105469 22.21875 C 35.128906 22.238281 35.160156 22.238281 35.183594 22.226562 C 35.21875 22.207031 35.226562 22.164062 35.207031 22.128906 C 35.082031 21.917969 34.910156 21.730469 34.71875 21.574219 C 34.527344 21.414062 34.308594 21.289062 34.078125 21.191406 C 33.84375 21.097656 33.597656 21.035156 33.351562 21.015625 C 33.101562 20.992188 32.851562 21.007812 32.613281 21.070312 C 32.582031 21.078125 32.558594 21.105469 32.554688 21.140625 C 32.550781 21.1875 32.582031 21.226562 32.628906 21.230469 Z M 33.734375 18.722656 C 33.875 18.78125 34.015625 18.816406 34.152344 18.855469 C 34.289062 18.890625 34.421875 18.925781 34.550781 18.964844 C 34.679688 19.003906 34.804688 19.050781 34.933594 19.101562 C 35.0625 19.152344 35.191406 19.214844 35.332031 19.265625 C 35.355469 19.273438 35.378906 19.269531 35.398438 19.253906 C 35.429688 19.230469 35.4375 19.1875 35.414062 19.15625 C 35.320312 19.03125 35.207031 18.925781 35.078125 18.835938 C 34.949219 18.746094 34.804688 18.675781 34.65625 18.625 C 34.507812 18.578125 34.355469 18.550781 34.203125 18.539062 C 34.050781 18.53125 33.902344 18.535156 33.75 18.5625 C 33.726562 18.566406 33.699219 18.585938 33.6875 18.613281 C 33.671875 18.65625 33.691406 18.707031 33.734375 18.722656 Z M 14.871094 32.679688 C 14.914062 32.683594 14.953125 32.648438 14.957031 32.605469 C 14.988281 32.289062 15.027344 31.980469 15.082031 31.675781 C 15.136719 31.371094 15.203125 31.070312 15.289062 30.769531 C 15.371094 30.472656 15.472656 30.179688 15.585938 29.886719 C 15.699219 29.597656 15.824219 29.3125 15.957031 29.023438 C 15.96875 28.996094 15.964844 28.964844 15.941406 28.945312 C 15.914062 28.917969 15.871094 28.921875 15.84375 28.949219 C 15.632812 29.195312 15.460938 29.472656 15.3125 29.761719 C 15.164062 30.050781 15.042969 30.359375 14.953125 30.671875 C 14.863281 30.984375 14.796875 31.308594 14.769531 31.632812 C 14.738281 31.960938 14.742188 32.289062 14.796875 32.609375 C 14.804688 32.644531 14.832031 32.675781 14.871094 32.679688 Z M 33.136719 19.859375 C 33.3125 19.90625 33.476562 19.949219 33.640625 19.996094 C 33.800781 20.046875 33.960938 20.097656 34.117188 20.164062 C 34.273438 20.222656 34.421875 20.296875 34.574219 20.375 C 34.726562 20.457031 34.875 20.542969 35.03125 20.632812 C 35.054688 20.644531 35.082031 20.644531 35.101562 20.628906 C 35.136719 20.609375 35.144531 20.566406 35.125 20.535156 C 35.019531 20.375 34.886719 20.238281 34.738281 20.121094 C 34.589844 20.003906 34.425781 19.90625 34.25 19.832031 C 34.074219 19.761719 33.890625 19.707031 33.703125 19.683594 C 33.515625 19.660156 33.324219 19.660156 33.140625 19.699219 C 33.113281 19.707031 33.085938 19.726562 33.078125 19.761719 C 33.066406 19.804688 33.09375 19.847656 33.136719 19.859375 Z M 34.480469 17.917969 C 34.59375 17.96875 34.699219 18.007812 34.804688 18.046875 L 35.117188 18.164062 C 35.21875 18.207031 35.320312 18.25 35.421875 18.292969 L 35.730469 18.4375 L 35.734375 18.441406 C 35.75 18.449219 35.773438 18.449219 35.792969 18.441406 C 35.828125 18.421875 35.84375 18.378906 35.828125 18.34375 C 35.773438 18.222656 35.683594 18.121094 35.582031 18.039062 C 35.480469 17.953125 35.367188 17.886719 35.25 17.835938 C 35.128906 17.785156 35.003906 17.753906 34.875 17.738281 C 34.75 17.722656 34.621094 17.722656 34.492188 17.757812 C 34.46875 17.761719 34.449219 17.78125 34.4375 17.804688 C 34.417969 17.847656 34.4375 17.898438 34.480469 17.917969 Z M 31.121094 26.214844 C 31.335938 26.433594 31.535156 26.664062 31.722656 26.90625 C 31.914062 27.148438 32.085938 27.402344 32.257812 27.660156 C 32.425781 27.917969 32.585938 28.183594 32.75 28.453125 C 32.769531 28.484375 32.804688 28.5 32.839844 28.488281 C 32.882812 28.476562 32.910156 28.429688 32.894531 28.386719 C 32.804688 28.078125 32.679688 27.78125 32.527344 27.496094 C 32.378906 27.210938 32.199219 26.941406 32 26.6875 C 31.796875 26.433594 31.574219 26.195312 31.324219 25.992188 C 31.078125 25.785156 30.804688 25.605469 30.507812 25.476562 C 30.480469 25.464844 30.445312 25.472656 30.425781 25.496094 C 30.40625 25.527344 30.410156 25.570312 30.4375 25.59375 C 30.679688 25.789062 30.910156 25.996094 31.121094 26.214844 Z M 32.332031 22.566406 C 32.601562 22.65625 32.867188 22.746094 33.121094 22.851562 C 33.375 22.960938 33.621094 23.085938 33.851562 23.230469 C 34.085938 23.375 34.300781 23.542969 34.503906 23.730469 C 34.707031 23.914062 34.894531 24.121094 35.078125 24.339844 C 35.097656 24.363281 35.128906 24.371094 35.15625 24.359375 C 35.191406 24.347656 35.210938 24.304688 35.195312 24.269531 C 35.082031 23.996094 34.917969 23.742188 34.71875 23.515625 C 34.523438 23.289062 34.292969 23.09375 34.039062 22.929688 C 33.785156 22.769531 33.511719 22.640625 33.230469 22.554688 C 32.945312 22.464844 32.652344 22.414062 32.359375 22.40625 C 32.324219 22.40625 32.289062 22.429688 32.28125 22.464844 C 32.265625 22.507812 32.289062 22.554688 32.332031 22.566406 Z M 31.613281 24.082031 C 31.902344 24.242188 32.183594 24.40625 32.457031 24.585938 C 32.726562 24.765625 32.992188 24.957031 33.238281 25.167969 C 33.488281 25.378906 33.71875 25.605469 33.945312 25.839844 C 34.167969 26.082031 34.378906 26.335938 34.585938 26.59375 C 34.605469 26.617188 34.636719 26.628906 34.667969 26.613281 C 34.703125 26.597656 34.714844 26.558594 34.703125 26.523438 C 34.5625 26.210938 34.382812 25.917969 34.171875 25.644531 C 33.964844 25.371094 33.726562 25.121094 33.464844 24.898438 C 33.203125 24.675781 32.917969 24.476562 32.617188 24.3125 C 32.316406 24.148438 32 24.019531 31.671875 23.929688 C 31.636719 23.921875 31.597656 23.9375 31.582031 23.972656 C 31.558594 24.011719 31.574219 24.058594 31.613281 24.082031 Z M 38.503906 29.273438 C 37.683594 29.367188 34.28125 29.601562 31.757812 29.625 C 31.886719 29.902344 31.984375 30.164062 32.054688 30.390625 C 32.230469 30.976562 32.421875 31.523438 32.546875 32.007812 C 33.296875 32.671875 34.480469 33.488281 35.59375 33.285156 C 37.265625 32.984375 39.269531 31.09375 38.96875 29.605469 C 38.925781 29.390625 38.722656 29.246094 38.503906 29.273438 Z M 16.769531 32.851562 C 15.03125 33.824219 12.445312 35.199219 11.160156 35.554688 C 8.96875 36.15625 12.429688 38.242188 14.125 37.996094 C 15.320312 37.824219 16.34375 36.390625 16.839844 35.566406 C 16.816406 35.449219 16.792969 35.328125 16.773438 35.203125 C 16.699219 34.726562 16.636719 33.867188 16.769531 32.851562 Z M 28.695312 50.402344 C 28.695312 50.402344 27.898438 52.730469 27.125 53.367188 L 26.601562 55.902344 L 27.847656 56.476562 L 29.777344 55.902344 L 30.328125 53.4375 C 29.871094 53.039062 29.328125 52.121094 28.695312 50.402344 Z M 35.199219 53.136719 L 35.234375 56.679688 L 36.6875 57.371094 L 38.335938 55.992188 L 38.355469 52.917969 C 37.730469 52.597656 36.984375 52.089844 36.085938 51.34375 C 36.085938 51.34375 37.515625 54.898438 35.199219 53.136719 Z M 51.28125 49.707031 C 51.28125 49.707031 51.148438 50.0625 50.925781 50.503906 L 49.777344 56.046875 L 50.722656 56.902344 L 52.953125 56.046875 L 53.511719 53.5625 C 52.773438 53.851562 51.957031 53.078125 51.28125 49.707031 Z M 56.964844 53.6875 L 56.964844 56.660156 L 58.703125 57.210938 L 60.070312 56.003906 L 60.136719 52.152344 C 59.96875 51.851562 59.804688 51.5 59.648438 51.082031 C 59.648438 51.082031 58.152344 53.28125 56.964844 53.6875 Z M 68.667969 42.78125 C 68.664062 43.046875 68.667969 43.308594 68.660156 43.570312 L 68.617188 44.355469 C 68.609375 44.484375 68.605469 44.617188 68.597656 44.746094 L 68.558594 45.136719 L 68.488281 45.914062 C 68.429688 46.429688 68.351562 46.945312 68.285156 47.457031 L 68.019531 48.988281 C 67.976562 49.230469 67.746094 49.390625 67.507812 49.347656 C 67.28125 49.308594 67.125 49.101562 67.140625 48.875 L 67.144531 48.855469 L 67.269531 47.34375 C 67.289062 46.839844 67.320312 46.339844 67.332031 45.835938 L 67.332031 45.234375 C 68.300781 41.957031 68.398438 39.351562 67.953125 37.277344 L 68.054688 37.613281 C 68.09375 37.746094 68.125 37.878906 68.160156 38.011719 L 68.210938 38.210938 L 68.25 38.410156 L 68.335938 38.8125 C 68.382812 39.078125 68.425781 39.34375 68.46875 39.609375 C 68.621094 40.671875 68.671875 41.730469 68.667969 42.78125 " fill-opacity="1" fill-rule="nonzero"/></g><g clip-path="url(#8b513a3ab5)"><path fill="#5f3329" d="M 32.945312 40.972656 C 32.910156 40.921875 32.871094 40.871094 32.800781 40.824219 C 32.800781 40.824219 32.796875 40.824219 32.792969 40.820312 C 32.722656 40.78125 32.632812 40.804688 32.59375 40.878906 C 32.554688 40.949219 32.542969 41.015625 32.535156 41.078125 C 32.53125 41.140625 32.539062 41.199219 32.554688 41.257812 C 32.570312 41.3125 32.597656 41.367188 32.632812 41.421875 C 32.667969 41.472656 32.710938 41.523438 32.78125 41.566406 C 32.78125 41.566406 32.785156 41.566406 32.785156 41.570312 C 32.84375 41.605469 32.921875 41.585938 32.957031 41.523438 C 33 41.453125 33.015625 41.386719 33.023438 41.324219 C 33.027344 41.261719 33.023438 41.199219 33.011719 41.140625 C 33 41.082031 32.976562 41.027344 32.945312 40.972656 Z M 34.050781 44.546875 C 34.011719 44.382812 33.960938 44.21875 33.898438 44.0625 C 33.835938 43.902344 33.765625 43.746094 33.667969 43.597656 C 33.648438 43.566406 33.617188 43.546875 33.582031 43.546875 C 33.519531 43.542969 33.464844 43.589844 33.460938 43.652344 C 33.449219 43.828125 33.464844 44 33.492188 44.167969 C 33.515625 44.339844 33.550781 44.503906 33.597656 44.667969 C 33.640625 44.832031 33.695312 44.992188 33.761719 45.148438 C 33.824219 45.308594 33.898438 45.464844 33.996094 45.613281 C 34.011719 45.636719 34.039062 45.652344 34.070312 45.65625 C 34.121094 45.65625 34.167969 45.617188 34.171875 45.566406 C 34.183594 45.386719 34.167969 45.214844 34.148438 45.046875 C 34.125 44.875 34.09375 44.710938 34.050781 44.546875 Z M 35.6875 50.351562 C 35.734375 50.332031 35.757812 50.277344 35.738281 50.230469 C 35.632812 49.976562 35.519531 49.730469 35.410156 49.484375 C 35.304688 49.238281 35.199219 48.996094 35.101562 48.75 C 35.003906 48.503906 34.90625 48.257812 34.8125 48.007812 C 34.71875 47.753906 34.628906 47.503906 34.523438 47.246094 C 34.507812 47.207031 34.46875 47.179688 34.421875 47.179688 C 34.363281 47.179688 34.3125 47.226562 34.3125 47.289062 C 34.308594 47.570312 34.347656 47.851562 34.410156 48.128906 C 34.472656 48.402344 34.558594 48.671875 34.667969 48.933594 C 34.777344 49.191406 34.90625 49.441406 35.058594 49.679688 C 35.210938 49.914062 35.386719 50.140625 35.589844 50.335938 C 35.613281 50.359375 35.652344 50.367188 35.6875 50.351562 Z M 58.152344 36.003906 L 58.464844 36.628906 L 58.785156 37.253906 C 58.890625 37.460938 58.996094 37.667969 59.121094 37.878906 C 59.144531 37.914062 59.183594 37.933594 59.226562 37.929688 C 59.285156 37.925781 59.332031 37.871094 59.324219 37.8125 C 59.304688 37.5625 59.246094 37.320312 59.171875 37.089844 C 59.09375 36.855469 58.996094 36.628906 58.882812 36.410156 C 58.769531 36.191406 58.640625 35.984375 58.488281 35.789062 C 58.339844 35.59375 58.179688 35.410156 57.988281 35.25 C 57.960938 35.230469 57.925781 35.222656 57.890625 35.238281 C 57.84375 35.257812 57.824219 35.3125 57.84375 35.359375 C 57.9375 35.585938 58.046875 35.796875 58.152344 36.003906 Z M 59.523438 39.425781 C 59.550781 39.527344 59.585938 39.625 59.632812 39.71875 C 59.679688 39.8125 59.734375 39.902344 59.816406 39.988281 C 59.828125 40 59.847656 40.011719 59.863281 40.015625 C 59.917969 40.03125 59.976562 40 59.992188 39.941406 C 60.023438 39.828125 60.027344 39.722656 60.023438 39.617188 C 60.019531 39.511719 60.003906 39.410156 59.980469 39.308594 C 59.957031 39.207031 59.921875 39.113281 59.878906 39.015625 C 59.835938 38.921875 59.78125 38.828125 59.703125 38.742188 C 59.6875 38.726562 59.667969 38.714844 59.644531 38.710938 C 59.578125 38.691406 59.511719 38.730469 59.496094 38.796875 C 59.46875 38.910156 59.464844 39.019531 59.472656 39.121094 C 59.480469 39.226562 59.496094 39.328125 59.523438 39.425781 Z M 60.507812 42.339844 C 60.492188 42.308594 60.460938 42.285156 60.425781 42.277344 C 60.363281 42.265625 60.304688 42.304688 60.296875 42.367188 C 60.261719 42.550781 60.25 42.730469 60.246094 42.90625 C 60.238281 43.085938 60.238281 43.261719 60.242188 43.4375 C 60.25 43.613281 60.257812 43.789062 60.273438 43.964844 C 60.289062 44.144531 60.308594 44.320312 60.347656 44.503906 C 60.355469 44.53125 60.375 44.558594 60.40625 44.570312 C 60.453125 44.59375 60.507812 44.570312 60.527344 44.519531 C 60.601562 44.34375 60.644531 44.164062 60.671875 43.980469 C 60.703125 43.796875 60.714844 43.613281 60.714844 43.429688 C 60.710938 43.242188 60.695312 43.058594 60.664062 42.878906 C 60.632812 42.695312 60.585938 42.515625 60.507812 42.339844 Z M 60.429688 46.972656 C 60.417969 46.9375 60.390625 46.910156 60.351562 46.902344 C 60.292969 46.886719 60.234375 46.925781 60.21875 46.984375 C 60.171875 47.164062 60.148438 47.339844 60.121094 47.511719 L 60.042969 48.019531 L 59.964844 48.53125 C 59.9375 48.703125 59.910156 48.878906 59.898438 49.0625 L 59.898438 49.066406 C 59.894531 49.09375 59.90625 49.125 59.929688 49.144531 C 59.972656 49.179688 60.03125 49.171875 60.0625 49.132812 C 60.1875 48.984375 60.277344 48.816406 60.351562 48.644531 C 60.421875 48.46875 60.472656 48.285156 60.507812 48.097656 C 60.539062 47.910156 60.550781 47.71875 60.539062 47.53125 C 60.53125 47.339844 60.5 47.152344 60.429688 46.972656 Z M 47.3125 46.210938 C 47.28125 46.125 47.238281 46.039062 47.171875 45.957031 C 47.164062 45.945312 47.152344 45.9375 47.136719 45.929688 C 47.085938 45.902344 47.019531 45.925781 46.992188 45.976562 C 46.945312 46.074219 46.925781 46.167969 46.914062 46.257812 C 46.902344 46.351562 46.902344 46.441406 46.910156 46.527344 C 46.917969 46.617188 46.9375 46.707031 46.964844 46.792969 C 46.996094 46.878906 47.035156 46.964844 47.101562 47.046875 C 47.113281 47.0625 47.125 47.074219 47.144531 47.082031 C 47.207031 47.113281 47.28125 47.085938 47.3125 47.023438 C 47.359375 46.925781 47.375 46.835938 47.382812 46.742188 C 47.394531 46.652344 47.390625 46.5625 47.378906 46.472656 C 47.367188 46.386719 47.34375 46.296875 47.3125 46.210938 Z M 46.933594 43.175781 C 46.921875 43.023438 46.902344 42.875 46.871094 42.730469 C 46.839844 42.582031 46.804688 42.4375 46.753906 42.296875 C 46.703125 42.15625 46.644531 42.015625 46.558594 41.878906 C 46.546875 41.855469 46.523438 41.839844 46.496094 41.835938 C 46.441406 41.824219 46.394531 41.859375 46.382812 41.914062 C 46.355469 42.070312 46.351562 42.222656 46.359375 42.375 C 46.363281 42.523438 46.382812 42.671875 46.410156 42.820312 C 46.4375 42.96875 46.472656 43.113281 46.519531 43.253906 C 46.566406 43.398438 46.625 43.539062 46.707031 43.675781 C 46.722656 43.703125 46.75 43.722656 46.785156 43.726562 C 46.847656 43.738281 46.90625 43.695312 46.914062 43.632812 C 46.941406 43.476562 46.941406 43.324219 46.933594 43.175781 Z M 45.578125 37.628906 C 45.460938 37.3125 45.332031 37 45.179688 36.695312 C 45.03125 36.390625 44.867188 36.097656 44.667969 35.820312 C 44.648438 35.789062 44.609375 35.773438 44.570312 35.785156 C 44.523438 35.796875 44.492188 35.851562 44.507812 35.898438 C 44.597656 36.222656 44.707031 36.539062 44.8125 36.851562 L 45.132812 37.789062 L 45.460938 38.722656 C 45.570312 39.035156 45.683594 39.347656 45.8125 39.65625 C 45.828125 39.699219 45.871094 39.726562 45.917969 39.722656 C 45.976562 39.71875 46.023438 39.667969 46.019531 39.605469 C 45.996094 39.265625 45.941406 38.933594 45.863281 38.601562 C 45.785156 38.273438 45.691406 37.949219 45.578125 37.628906 Z M 39.558594 42.585938 C 39.511719 42.511719 39.457031 42.441406 39.371094 42.394531 C 39.363281 42.386719 39.351562 42.382812 39.34375 42.382812 C 39.285156 42.367188 39.222656 42.402344 39.207031 42.460938 L 39.207031 42.46875 C 39.183594 42.554688 39.175781 42.628906 39.175781 42.703125 C 39.171875 42.773438 39.175781 42.839844 39.1875 42.902344 C 39.195312 42.96875 39.210938 43.035156 39.230469 43.097656 C 39.253906 43.164062 39.28125 43.234375 39.328125 43.308594 L 39.335938 43.316406 C 39.339844 43.324219 39.347656 43.335938 39.359375 43.34375 C 39.414062 43.390625 39.496094 43.382812 39.542969 43.328125 C 39.605469 43.253906 39.636719 43.167969 39.652344 43.082031 C 39.667969 42.996094 39.667969 42.910156 39.648438 42.824219 C 39.632812 42.742188 39.605469 42.660156 39.558594 42.585938 Z M 40.359375 45.839844 C 40.328125 45.6875 40.289062 45.539062 40.234375 45.390625 C 40.183594 45.246094 40.125 45.101562 40.039062 44.960938 C 40.023438 44.9375 40.003906 44.921875 39.972656 44.917969 C 39.921875 44.910156 39.871094 44.945312 39.863281 44.996094 C 39.835938 45.160156 39.835938 45.316406 39.84375 45.472656 C 39.851562 45.625 39.871094 45.777344 39.898438 45.929688 C 39.925781 46.082031 39.960938 46.230469 40.011719 46.378906 C 40.058594 46.523438 40.117188 46.667969 40.199219 46.808594 C 40.21875 46.835938 40.246094 46.859375 40.28125 46.863281 C 40.339844 46.871094 40.398438 46.828125 40.410156 46.765625 C 40.433594 46.605469 40.433594 46.449219 40.421875 46.292969 C 40.414062 46.140625 40.390625 45.988281 40.359375 45.839844 Z M 28.628906 49.238281 C 28.640625 49.253906 28.65625 49.269531 28.675781 49.277344 C 28.738281 49.304688 28.8125 49.277344 28.839844 49.214844 C 28.886719 49.113281 28.90625 49.015625 28.914062 48.917969 C 28.925781 48.816406 28.921875 48.722656 28.910156 48.625 C 28.898438 48.527344 28.878906 48.433594 28.847656 48.339844 C 28.816406 48.246094 28.777344 48.152344 28.710938 48.0625 C 28.699219 48.046875 28.6875 48.035156 28.667969 48.027344 C 28.617188 48.003906 28.554688 48.027344 28.53125 48.078125 C 28.480469 48.183594 28.460938 48.28125 28.449219 48.378906 C 28.4375 48.476562 28.433594 48.574219 28.441406 48.671875 C 28.449219 48.769531 28.46875 48.863281 28.496094 48.957031 C 28.523438 49.054688 28.5625 49.148438 28.628906 49.238281 Z M 28.105469 46.351562 C 28.117188 46.371094 28.140625 46.390625 28.167969 46.398438 C 28.226562 46.421875 28.296875 46.386719 28.316406 46.324219 C 28.355469 46.203125 28.371094 46.082031 28.375 45.964844 C 28.378906 45.847656 28.375 45.730469 28.355469 45.613281 C 28.339844 45.5 28.316406 45.382812 28.277344 45.273438 C 28.242188 45.160156 28.195312 45.046875 28.125 44.9375 C 28.113281 44.921875 28.097656 44.90625 28.074219 44.898438 C 28.023438 44.882812 27.964844 44.910156 27.945312 44.960938 C 27.902344 45.085938 27.886719 45.203125 27.878906 45.324219 C 27.871094 45.441406 27.875 45.558594 27.890625 45.675781 C 27.902344 45.789062 27.925781 45.902344 27.957031 46.019531 C 27.992188 46.128906 28.035156 46.242188 28.105469 46.351562 Z M 26.550781 47.609375 C 26.605469 47.472656 26.632812 47.339844 26.652344 47.203125 C 26.671875 47.070312 26.679688 46.933594 26.679688 46.800781 C 26.675781 46.664062 26.664062 46.53125 26.644531 46.394531 C 26.621094 46.257812 26.589844 46.125 26.53125 45.988281 C 26.523438 45.96875 26.503906 45.949219 26.480469 45.9375 C 26.433594 45.917969 26.375 45.9375 26.351562 45.988281 C 26.296875 46.125 26.265625 46.257812 26.242188 46.394531 C 26.21875 46.53125 26.210938 46.664062 26.207031 46.800781 C 26.207031 46.933594 26.214844 47.070312 26.230469 47.203125 C 26.253906 47.339844 26.28125 47.472656 26.335938 47.609375 C 26.347656 47.636719 26.371094 47.660156 26.398438 47.671875 C 26.457031 47.695312 26.523438 47.667969 26.550781 47.609375 Z M 51.203125 28.039062 C 51.285156 28.097656 51.371094 28.148438 51.460938 28.1875 C 51.550781 28.230469 51.644531 28.261719 51.742188 28.28125 C 51.839844 28.300781 51.941406 28.316406 52.054688 28.300781 C 52.074219 28.300781 52.097656 28.292969 52.113281 28.277344 C 52.167969 28.234375 52.179688 28.15625 52.136719 28.105469 C 52.070312 28.011719 51.988281 27.949219 51.90625 27.890625 C 51.824219 27.835938 51.738281 27.789062 51.644531 27.75 C 51.554688 27.714844 51.460938 27.683594 51.359375 27.667969 C 51.261719 27.648438 51.15625 27.636719 51.042969 27.652344 C 51.027344 27.65625 51.011719 27.664062 50.996094 27.671875 C 50.949219 27.707031 50.941406 27.773438 50.976562 27.820312 C 51.042969 27.914062 51.121094 27.980469 51.203125 28.039062 Z M 47.441406 26.417969 C 47.332031 26.332031 47.21875 26.253906 47.101562 26.183594 C 46.984375 26.117188 46.859375 26.054688 46.730469 26 C 46.601562 25.949219 46.46875 25.90625 46.324219 25.886719 C 46.296875 25.882812 46.273438 25.886719 46.25 25.90625 C 46.207031 25.9375 46.199219 25.996094 46.230469 26.042969 C 46.316406 26.164062 46.417969 26.261719 46.527344 26.351562 C 46.632812 26.441406 46.742188 26.519531 46.859375 26.59375 C 46.976562 26.664062 47.097656 26.726562 47.226562 26.78125 C 47.351562 26.835938 47.484375 26.882812 47.628906 26.90625 C 47.660156 26.910156 47.691406 26.902344 47.714844 26.882812 C 47.769531 26.84375 47.777344 26.769531 47.738281 26.71875 C 47.652344 26.601562 47.546875 26.503906 47.441406 26.417969 Z M 49.890625 26.882812 C 49.941406 26.847656 49.957031 26.777344 49.921875 26.722656 C 49.839844 26.59375 49.742188 26.488281 49.640625 26.390625 C 49.535156 26.292969 49.425781 26.207031 49.308594 26.125 C 49.195312 26.046875 49.074219 25.972656 48.945312 25.910156 C 48.820312 25.84375 48.6875 25.789062 48.539062 25.753906 C 48.515625 25.75 48.488281 25.753906 48.464844 25.765625 C 48.417969 25.796875 48.40625 25.855469 48.433594 25.902344 C 48.515625 26.03125 48.613281 26.140625 48.714844 26.238281 C 48.816406 26.339844 48.925781 26.429688 49.039062 26.511719 C 49.152344 26.597656 49.269531 26.671875 49.394531 26.738281 C 49.523438 26.804688 49.652344 26.863281 49.800781 26.898438 C 49.828125 26.90625 49.863281 26.902344 49.890625 26.882812 Z M 44.164062 24.378906 C 44.089844 24.308594 44.007812 24.25 43.921875 24.199219 C 43.832031 24.148438 43.742188 24.101562 43.644531 24.070312 C 43.546875 24.035156 43.445312 24.007812 43.328125 24.003906 C 43.3125 24.003906 43.292969 24.007812 43.277344 24.019531 C 43.226562 24.046875 43.207031 24.109375 43.234375 24.160156 C 43.292969 24.261719 43.359375 24.34375 43.433594 24.414062 C 43.511719 24.488281 43.589844 24.550781 43.675781 24.601562 C 43.761719 24.65625 43.851562 24.703125 43.945312 24.742188 C 44.042969 24.777344 44.144531 24.804688 44.257812 24.8125 C 44.28125 24.8125 44.300781 24.804688 44.324219 24.792969 C 44.382812 24.761719 44.402344 24.6875 44.367188 24.625 C 44.3125 24.527344 44.242188 24.449219 44.164062 24.378906 Z M 46.996094 24.582031 C 47.027344 24.589844 47.0625 24.585938 47.089844 24.566406 C 47.140625 24.53125 47.152344 24.457031 47.117188 24.40625 C 47.03125 24.277344 46.925781 24.171875 46.820312 24.074219 C 46.710938 23.976562 46.597656 23.886719 46.476562 23.804688 C 46.355469 23.726562 46.230469 23.652344 46.097656 23.585938 C 45.96875 23.523438 45.832031 23.46875 45.679688 23.433594 C 45.652344 23.429688 45.628906 23.433594 45.605469 23.449219 C 45.558594 23.476562 45.546875 23.539062 45.578125 23.582031 C 45.664062 23.714844 45.765625 23.820312 45.871094 23.921875 C 45.980469 24.023438 46.09375 24.113281 46.210938 24.199219 C 46.328125 24.28125 46.453125 24.355469 46.582031 24.421875 C 46.710938 24.488281 46.847656 24.546875 46.996094 24.582031 Z M 43.5625 22.402344 C 43.605469 22.355469 43.601562 22.28125 43.554688 22.242188 C 43.429688 22.132812 43.296875 22.050781 43.164062 21.976562 C 43.027344 21.902344 42.886719 21.839844 42.746094 21.789062 C 42.601562 21.734375 42.457031 21.6875 42.304688 21.65625 C 42.15625 21.621094 42.003906 21.59375 41.839844 21.59375 C 41.8125 21.59375 41.785156 21.605469 41.765625 21.625 C 41.730469 21.664062 41.734375 21.726562 41.773438 21.761719 C 41.894531 21.871094 42.027344 21.957031 42.160156 22.03125 C 42.296875 22.109375 42.433594 22.171875 42.574219 22.230469 C 42.71875 22.289062 42.863281 22.335938 43.011719 22.371094 C 43.160156 22.410156 43.3125 22.4375 43.476562 22.441406 C 43.507812 22.441406 43.539062 22.429688 43.5625 22.402344 Z M 65.929688 43.207031 C 65.917969 43.191406 65.902344 43.175781 65.878906 43.164062 C 65.828125 43.144531 65.773438 43.167969 65.75 43.21875 L 65.75 43.222656 C 65.703125 43.34375 65.671875 43.453125 65.640625 43.5625 C 65.609375 43.671875 65.582031 43.777344 65.554688 43.882812 C 65.53125 43.988281 65.507812 44.097656 65.480469 44.207031 C 65.460938 44.316406 65.4375 44.425781 65.425781 44.554688 L 65.425781 44.558594 C 65.425781 44.585938 65.429688 44.613281 65.449219 44.636719 C 65.484375 44.691406 65.558594 44.703125 65.609375 44.664062 C 65.722656 44.585938 65.808594 44.480469 65.875 44.363281 C 65.9375 44.25 65.988281 44.121094 66.015625 43.992188 C 66.042969 43.863281 66.054688 43.726562 66.042969 43.59375 C 66.027344 43.460938 65.996094 43.328125 65.929688 43.207031 Z M 64.21875 34.886719 C 64.171875 34.773438 64.117188 34.667969 64.054688 34.566406 C 63.988281 34.464844 63.914062 34.367188 63.816406 34.277344 C 63.800781 34.265625 63.78125 34.253906 63.757812 34.253906 C 63.703125 34.25 63.65625 34.289062 63.652344 34.347656 C 63.640625 34.480469 63.65625 34.601562 63.679688 34.71875 C 63.703125 34.835938 63.738281 34.953125 63.78125 35.0625 C 63.824219 35.175781 63.875 35.28125 63.9375 35.382812 C 64 35.488281 64.070312 35.585938 64.167969 35.675781 C 64.1875 35.695312 64.210938 35.703125 64.238281 35.707031 C 64.304688 35.710938 64.359375 35.660156 64.363281 35.59375 C 64.371094 35.464844 64.355469 35.34375 64.328125 35.222656 C 64.300781 35.109375 64.265625 34.992188 64.21875 34.886719 Z M 65.222656 38.289062 C 65.175781 38.144531 65.113281 38.003906 65.019531 37.875 C 65.003906 37.855469 64.984375 37.839844 64.957031 37.835938 C 64.902344 37.828125 64.855469 37.863281 64.847656 37.917969 C 64.824219 38.074219 64.824219 38.21875 64.824219 38.359375 C 64.828125 38.503906 64.835938 38.640625 64.847656 38.78125 C 64.859375 38.921875 64.878906 39.058594 64.898438 39.199219 C 64.921875 39.339844 64.949219 39.480469 65 39.625 L 65 39.628906 C 65.007812 39.65625 65.03125 39.683594 65.0625 39.695312 C 65.117188 39.722656 65.1875 39.695312 65.210938 39.636719 C 65.273438 39.492188 65.304688 39.339844 65.320312 39.1875 C 65.335938 39.039062 65.335938 38.886719 65.316406 38.734375 C 65.300781 38.585938 65.269531 38.433594 65.222656 38.289062 Z M 66.242188 40.460938 L 66.191406 40.972656 C 66.175781 41.144531 66.15625 41.316406 66.148438 41.503906 C 66.148438 41.539062 66.164062 41.578125 66.195312 41.597656 C 66.246094 41.636719 66.316406 41.625 66.351562 41.574219 C 66.464844 41.417969 66.542969 41.242188 66.601562 41.0625 C 66.660156 40.878906 66.695312 40.691406 66.710938 40.5 C 66.722656 40.308594 66.714844 40.117188 66.683594 39.929688 C 66.652344 39.742188 66.601562 39.554688 66.511719 39.382812 C 66.496094 39.359375 66.472656 39.339844 66.441406 39.335938 C 66.390625 39.328125 66.339844 39.363281 66.335938 39.414062 L 66.332031 39.417969 C 66.308594 39.601562 66.296875 39.777344 66.285156 39.949219 Z M 66.242188 37.433594 C 66.296875 37.246094 66.308594 37.058594 66.300781 36.867188 C 66.296875 36.679688 66.269531 36.492188 66.222656 36.308594 C 66.175781 36.125 66.109375 35.945312 66.023438 35.777344 C 65.9375 35.609375 65.835938 35.449219 65.699219 35.3125 C 65.679688 35.292969 65.648438 35.28125 65.621094 35.285156 C 65.566406 35.292969 65.53125 35.34375 65.539062 35.394531 C 65.566406 35.578125 65.609375 35.75 65.648438 35.917969 L 65.765625 36.421875 C 65.804688 36.589844 65.84375 36.757812 65.886719 36.925781 C 65.929688 37.09375 65.96875 37.261719 66.03125 37.4375 L 66.03125 37.441406 C 66.042969 37.472656 66.070312 37.5 66.105469 37.511719 C 66.164062 37.527344 66.226562 37.492188 66.242188 37.433594 Z M 27.28125 37.621094 C 27.308594 37.652344 27.351562 37.667969 27.394531 37.660156 C 27.453125 37.648438 27.492188 37.585938 27.480469 37.523438 L 27.480469 37.511719 C 27.417969 37.226562 27.386719 36.917969 27.46875 36.707031 C 27.503906 36.601562 27.5625 36.523438 27.640625 36.457031 C 27.664062 36.441406 27.6875 36.425781 27.707031 36.410156 C 27.730469 36.394531 27.757812 36.382812 27.78125 36.371094 C 27.832031 36.339844 27.878906 36.328125 27.921875 36.316406 C 28.011719 36.300781 28.085938 36.308594 28.179688 36.351562 C 28.269531 36.394531 28.371094 36.476562 28.464844 36.570312 C 28.652344 36.765625 28.820312 37.023438 28.988281 37.273438 L 28.992188 37.285156 C 29.019531 37.328125 29.070312 37.351562 29.125 37.34375 C 29.199219 37.332031 29.25 37.265625 29.238281 37.1875 C 29.191406 36.847656 29.074219 36.535156 28.871094 36.234375 C 28.765625 36.085938 28.636719 35.945312 28.449219 35.839844 C 28.359375 35.785156 28.253906 35.746094 28.140625 35.726562 C 28.023438 35.707031 27.90625 35.710938 27.796875 35.734375 C 27.691406 35.765625 27.585938 35.800781 27.503906 35.855469 C 27.464844 35.882812 27.421875 35.90625 27.378906 35.933594 C 27.339844 35.96875 27.300781 36.003906 27.261719 36.039062 C 27.109375 36.1875 27.003906 36.390625 26.976562 36.59375 C 26.945312 36.796875 26.976562 36.988281 27.03125 37.160156 C 27.09375 37.332031 27.167969 37.480469 27.28125 37.621094 Z M 22.070312 39.035156 C 22.144531 39.042969 22.210938 38.988281 22.21875 38.914062 L 22.222656 38.902344 C 22.257812 38.601562 22.292969 38.296875 22.375 38.035156 C 22.414062 37.910156 22.464844 37.792969 22.527344 37.710938 C 22.59375 37.628906 22.65625 37.589844 22.742188 37.5625 C 22.785156 37.554688 22.832031 37.542969 22.890625 37.546875 C 22.921875 37.546875 22.949219 37.546875 22.976562 37.546875 C 23.003906 37.554688 23.027344 37.558594 23.054688 37.5625 C 23.15625 37.585938 23.242188 37.625 23.324219 37.703125 C 23.488281 37.855469 23.597656 38.144531 23.671875 38.429688 L 23.675781 38.441406 C 23.6875 38.480469 23.71875 38.511719 23.761719 38.523438 C 23.824219 38.535156 23.882812 38.496094 23.898438 38.433594 C 23.9375 38.257812 23.9375 38.089844 23.914062 37.910156 C 23.886719 37.734375 23.832031 37.546875 23.710938 37.382812 C 23.59375 37.214844 23.410156 37.078125 23.207031 37.011719 C 23.160156 37 23.105469 36.984375 23.058594 36.976562 C 23.007812 36.96875 22.957031 36.964844 22.90625 36.960938 C 22.8125 36.949219 22.699219 36.964844 22.59375 36.988281 C 22.484375 37.019531 22.378906 37.066406 22.285156 37.132812 C 22.191406 37.203125 22.117188 37.289062 22.058594 37.378906 C 21.941406 37.554688 21.886719 37.746094 21.859375 37.921875 C 21.8125 38.28125 21.847656 38.617188 21.957031 38.941406 C 21.972656 38.988281 22.015625 39.027344 22.070312 39.035156 Z M 28.238281 40.136719 C 28.230469 40.113281 28.21875 40.09375 28.199219 40.078125 C 28.148438 40.03125 28.074219 40.039062 28.027344 40.085938 C 27.949219 40.179688 27.898438 40.273438 27.855469 40.375 C 27.808594 40.472656 27.777344 40.574219 27.753906 40.679688 C 27.730469 40.785156 27.71875 40.890625 27.714844 41 C 27.710938 41.109375 27.714844 41.21875 27.746094 41.339844 C 27.753906 41.355469 27.761719 41.375 27.777344 41.386719 C 27.820312 41.425781 27.882812 41.421875 27.921875 41.378906 C 28.003906 41.289062 28.058594 41.195312 28.105469 41.09375 C 28.152344 40.996094 28.1875 40.894531 28.210938 40.792969 C 28.238281 40.6875 28.257812 40.582031 28.261719 40.472656 C 28.269531 40.367188 28.265625 40.253906 28.238281 40.136719 Z M 24.730469 42.046875 C 24.707031 41.929688 24.660156 41.828125 24.609375 41.730469 C 24.558594 41.632812 24.5 41.542969 24.433594 41.460938 C 24.367188 41.378906 24.292969 41.300781 24.210938 41.230469 C 24.128906 41.160156 24.039062 41.097656 23.929688 41.050781 C 23.90625 41.042969 23.882812 41.039062 23.859375 41.046875 C 23.792969 41.058594 23.75 41.125 23.765625 41.1875 C 23.789062 41.308594 23.835938 41.410156 23.886719 41.503906 C 23.941406 41.597656 24.003906 41.683594 24.070312 41.765625 C 24.140625 41.847656 24.21875 41.921875 24.300781 41.988281 C 24.386719 42.058594 24.476562 42.121094 24.589844 42.164062 C 24.609375 42.171875 24.628906 42.171875 24.648438 42.167969 C 24.703125 42.15625 24.738281 42.105469 24.730469 42.046875 Z M 29.878906 39.835938 C 30.191406 42.113281 27.742188 42.542969 26.480469 42.839844 C 25.21875 43.132812 22.832031 43.84375 22.113281 41.660156 C 21.304688 39.195312 24.664062 39.652344 25.6875 39.410156 C 26.714844 39.167969 29.527344 37.261719 29.878906 39.835938 Z M 67.226562 48.691406 C 66.058594 49.019531 66.035156 50.695312 66.183594 51.40625 C 66.457031 52.714844 66.058594 54.476562 66.058594 54.476562 C 68.292969 54.195312 68.902344 51.761719 68.925781 50.539062 C 68.960938 48.875 67.828125 48.519531 67.226562 48.691406 Z M 27.652344 57.660156 C 27.652344 57.660156 28.335938 60.5625 29.777344 55.902344 L 26.601562 55.902344 C 25.898438 59.976562 27.652344 57.660156 27.652344 57.660156 Z M 36.632812 58.167969 C 36.632812 58.167969 37.917969 60.855469 38.335938 55.992188 L 35.234375 56.679688 C 35.410156 60.808594 36.632812 58.167969 36.632812 58.167969 Z M 50.832031 57.804688 C 50.832031 57.804688 51.515625 60.703125 52.953125 56.046875 L 49.777344 56.046875 C 49.074219 60.121094 50.832031 57.804688 50.832031 57.804688 Z M 56.964844 56.660156 L 60.070312 56.003906 C 59.601562 60.863281 58.347656 58.164062 58.347656 58.164062 C 58.347656 58.164062 57.097656 60.792969 56.964844 56.660156 " fill-opacity="1" fill-rule="nonzero"/></g></svg>